<mxfile host="app.diagrams.net" modified="2020-11-08T04:58:41.315Z" agent="5.0 (Macintosh)" etag="A70flBElpbMZYP1vZE6r" version="13.9.2" type="github">
  <diagram id="C5RBs43oDa-KdzZeNtuy" name="Page-1">
    <mxGraphModel dx="1426" dy="728" grid="1" gridSize="10" guides="1" tooltips="1" connect="1" arrows="1" fold="1" page="1" pageScale="1" pageWidth="1169" pageHeight="827" math="0" shadow="0">
      <root>
        <mxCell id="WIyWlLk6GJQsqaUBKTNV-0" />
        <mxCell id="WIyWlLk6GJQsqaUBKTNV-1" parent="WIyWlLk6GJQsqaUBKTNV-0" />
        <mxCell id="WIyWlLk6GJQsqaUBKTNV-2" value="" style="rounded=0;html=1;jettySize=auto;orthogonalLoop=1;fontSize=11;endArrow=classicThin;endFill=1;endSize=8;strokeWidth=1;shadow=0;labelBackgroundColor=none;edgeStyle=orthogonalEdgeStyle;entryX=0.5;entryY=0;entryDx=0;entryDy=0;" parent="WIyWlLk6GJQsqaUBKTNV-1" source="WIyWlLk6GJQsqaUBKTNV-3" target="LeEIv6P1fug_gj2INwmn-0" edge="1">
          <mxGeometry relative="1" as="geometry">
            <mxPoint x="220" y="170" as="targetPoint" />
          </mxGeometry>
        </mxCell>
        <mxCell id="WIyWlLk6GJQsqaUBKTNV-3" value="贡献者提交&amp;nbsp; PR" style="rounded=1;whiteSpace=wrap;html=1;fontSize=12;glass=0;strokeWidth=1;shadow=0;" parent="WIyWlLk6GJQsqaUBKTNV-1" vertex="1">
          <mxGeometry x="160" y="80" width="120" height="40" as="geometry" />
        </mxCell>
        <mxCell id="WIyWlLk6GJQsqaUBKTNV-8" value="通过" style="rounded=0;html=1;jettySize=auto;orthogonalLoop=1;fontSize=11;endArrow=classicThin;endFill=1;endSize=8;strokeWidth=1;shadow=0;labelBackgroundColor=none;edgeStyle=orthogonalEdgeStyle;entryX=0.5;entryY=0;entryDx=0;entryDy=0;" parent="WIyWlLk6GJQsqaUBKTNV-1" source="WIyWlLk6GJQsqaUBKTNV-10" target="LeEIv6P1fug_gj2INwmn-4" edge="1">
          <mxGeometry x="-0.2" y="10" relative="1" as="geometry">
            <mxPoint as="offset" />
            <mxPoint x="220" y="360" as="targetPoint" />
          </mxGeometry>
        </mxCell>
        <mxCell id="WIyWlLk6GJQsqaUBKTNV-9" value="未通过" style="edgeStyle=orthogonalEdgeStyle;rounded=0;html=1;jettySize=auto;orthogonalLoop=1;fontSize=11;endArrow=classicThin;endFill=1;endSize=8;strokeWidth=1;shadow=0;labelBackgroundColor=none;entryX=1;entryY=0.5;entryDx=0;entryDy=0;" parent="WIyWlLk6GJQsqaUBKTNV-1" source="WIyWlLk6GJQsqaUBKTNV-10" target="LeEIv6P1fug_gj2INwmn-0" edge="1">
          <mxGeometry x="0.0588" relative="1" as="geometry">
            <mxPoint as="offset" />
            <mxPoint x="460" y="250" as="targetPoint" />
            <Array as="points">
              <mxPoint x="320" y="270" />
              <mxPoint x="320" y="190" />
            </Array>
          </mxGeometry>
        </mxCell>
        <mxCell id="WIyWlLk6GJQsqaUBKTNV-10" value="review 是否通过" style="rhombus;whiteSpace=wrap;html=1;shadow=0;fontFamily=Helvetica;fontSize=12;align=center;strokeWidth=1;spacing=6;spacingTop=-4;" parent="WIyWlLk6GJQsqaUBKTNV-1" vertex="1">
          <mxGeometry x="170" y="230" width="100" height="80" as="geometry" />
        </mxCell>
        <mxCell id="LeEIv6P1fug_gj2INwmn-2" style="edgeStyle=orthogonalEdgeStyle;rounded=0;orthogonalLoop=1;jettySize=auto;html=1;entryX=0.5;entryY=0;entryDx=0;entryDy=0;" edge="1" parent="WIyWlLk6GJQsqaUBKTNV-1" source="LeEIv6P1fug_gj2INwmn-0" target="WIyWlLk6GJQsqaUBKTNV-10">
          <mxGeometry relative="1" as="geometry" />
        </mxCell>
        <mxCell id="LeEIv6P1fug_gj2INwmn-0" value="Reviewer 第一阶段 review" style="rounded=0;whiteSpace=wrap;html=1;" vertex="1" parent="WIyWlLk6GJQsqaUBKTNV-1">
          <mxGeometry x="160" y="170" width="120" height="40" as="geometry" />
        </mxCell>
        <mxCell id="LeEIv6P1fug_gj2INwmn-1" style="edgeStyle=orthogonalEdgeStyle;rounded=0;orthogonalLoop=1;jettySize=auto;html=1;exitX=0.5;exitY=1;exitDx=0;exitDy=0;" edge="1" parent="WIyWlLk6GJQsqaUBKTNV-1" source="LeEIv6P1fug_gj2INwmn-0" target="LeEIv6P1fug_gj2INwmn-0">
          <mxGeometry relative="1" as="geometry" />
        </mxCell>
        <mxCell id="LeEIv6P1fug_gj2INwmn-6" value="" style="edgeStyle=orthogonalEdgeStyle;rounded=0;orthogonalLoop=1;jettySize=auto;html=1;" edge="1" parent="WIyWlLk6GJQsqaUBKTNV-1" source="LeEIv6P1fug_gj2INwmn-4" target="LeEIv6P1fug_gj2INwmn-5">
          <mxGeometry relative="1" as="geometry" />
        </mxCell>
        <mxCell id="LeEIv6P1fug_gj2INwmn-4" value="机器人添加 status/LGT1" style="rounded=0;whiteSpace=wrap;html=1;" vertex="1" parent="WIyWlLk6GJQsqaUBKTNV-1">
          <mxGeometry x="160" y="350" width="120" height="40" as="geometry" />
        </mxCell>
        <mxCell id="LeEIv6P1fug_gj2INwmn-8" style="edgeStyle=orthogonalEdgeStyle;rounded=0;orthogonalLoop=1;jettySize=auto;html=1;entryX=0.5;entryY=0;entryDx=0;entryDy=0;" edge="1" parent="WIyWlLk6GJQsqaUBKTNV-1" source="LeEIv6P1fug_gj2INwmn-5" target="LeEIv6P1fug_gj2INwmn-7">
          <mxGeometry relative="1" as="geometry" />
        </mxCell>
        <mxCell id="LeEIv6P1fug_gj2INwmn-5" value="Reviewer 第二阶段 review" style="whiteSpace=wrap;html=1;rounded=0;" vertex="1" parent="WIyWlLk6GJQsqaUBKTNV-1">
          <mxGeometry x="160" y="430" width="120" height="50" as="geometry" />
        </mxCell>
        <mxCell id="LeEIv6P1fug_gj2INwmn-11" style="edgeStyle=orthogonalEdgeStyle;rounded=0;orthogonalLoop=1;jettySize=auto;html=1;entryX=0.5;entryY=0;entryDx=0;entryDy=0;" edge="1" parent="WIyWlLk6GJQsqaUBKTNV-1" source="LeEIv6P1fug_gj2INwmn-7" target="LeEIv6P1fug_gj2INwmn-10">
          <mxGeometry relative="1" as="geometry" />
        </mxCell>
        <mxCell id="LeEIv6P1fug_gj2INwmn-12" value="通过" style="edgeLabel;html=1;align=center;verticalAlign=middle;resizable=0;points=[];" vertex="1" connectable="0" parent="LeEIv6P1fug_gj2INwmn-11">
          <mxGeometry x="-0.2" y="3" relative="1" as="geometry">
            <mxPoint as="offset" />
          </mxGeometry>
        </mxCell>
        <mxCell id="LeEIv6P1fug_gj2INwmn-7" value="review 是否通过" style="rhombus;whiteSpace=wrap;html=1;shadow=0;fontFamily=Helvetica;fontSize=12;align=center;strokeWidth=1;spacing=6;spacingTop=-4;" vertex="1" parent="WIyWlLk6GJQsqaUBKTNV-1">
          <mxGeometry x="170" y="500" width="100" height="80" as="geometry" />
        </mxCell>
        <mxCell id="LeEIv6P1fug_gj2INwmn-9" value="未通过" style="edgeStyle=orthogonalEdgeStyle;rounded=0;html=1;jettySize=auto;orthogonalLoop=1;fontSize=11;endArrow=classicThin;endFill=1;endSize=8;strokeWidth=1;shadow=0;labelBackgroundColor=none;entryX=1;entryY=0.5;entryDx=0;entryDy=0;exitX=1;exitY=0.5;exitDx=0;exitDy=0;" edge="1" parent="WIyWlLk6GJQsqaUBKTNV-1" source="LeEIv6P1fug_gj2INwmn-7" target="LeEIv6P1fug_gj2INwmn-5">
          <mxGeometry x="0.0286" relative="1" as="geometry">
            <mxPoint as="offset" />
            <mxPoint x="270" y="540" as="sourcePoint" />
            <mxPoint x="280" y="460" as="targetPoint" />
            <Array as="points">
              <mxPoint x="320" y="540" />
              <mxPoint x="320" y="455" />
            </Array>
          </mxGeometry>
        </mxCell>
        <mxCell id="LeEIv6P1fug_gj2INwmn-14" value="" style="edgeStyle=orthogonalEdgeStyle;rounded=0;orthogonalLoop=1;jettySize=auto;html=1;entryX=0.5;entryY=0;entryDx=0;entryDy=0;" edge="1" parent="WIyWlLk6GJQsqaUBKTNV-1" source="LeEIv6P1fug_gj2INwmn-10" target="LeEIv6P1fug_gj2INwmn-13">
          <mxGeometry relative="1" as="geometry">
            <mxPoint x="220" y="700" as="targetPoint" />
          </mxGeometry>
        </mxCell>
        <mxCell id="LeEIv6P1fug_gj2INwmn-10" value="机器人添加 status/LGT2" style="rounded=0;whiteSpace=wrap;html=1;" vertex="1" parent="WIyWlLk6GJQsqaUBKTNV-1">
          <mxGeometry x="160" y="620" width="120" height="40" as="geometry" />
        </mxCell>
        <mxCell id="LeEIv6P1fug_gj2INwmn-16" value="" style="edgeStyle=orthogonalEdgeStyle;rounded=0;orthogonalLoop=1;jettySize=auto;html=1;" edge="1" parent="WIyWlLk6GJQsqaUBKTNV-1" source="LeEIv6P1fug_gj2INwmn-13" target="LeEIv6P1fug_gj2INwmn-15">
          <mxGeometry relative="1" as="geometry" />
        </mxCell>
        <mxCell id="LeEIv6P1fug_gj2INwmn-13" value="Committer 审核" style="whiteSpace=wrap;html=1;rounded=0;" vertex="1" parent="WIyWlLk6GJQsqaUBKTNV-1">
          <mxGeometry x="160" y="690" width="120" height="40" as="geometry" />
        </mxCell>
        <mxCell id="LeEIv6P1fug_gj2INwmn-19" value="" style="edgeStyle=orthogonalEdgeStyle;rounded=0;orthogonalLoop=1;jettySize=auto;html=1;" edge="1" parent="WIyWlLk6GJQsqaUBKTNV-1" source="LeEIv6P1fug_gj2INwmn-15" target="LeEIv6P1fug_gj2INwmn-18">
          <mxGeometry relative="1" as="geometry" />
        </mxCell>
        <mxCell id="LeEIv6P1fug_gj2INwmn-20" value="通过" style="edgeLabel;html=1;align=center;verticalAlign=middle;resizable=0;points=[];" vertex="1" connectable="0" parent="LeEIv6P1fug_gj2INwmn-19">
          <mxGeometry x="0.24" relative="1" as="geometry">
            <mxPoint as="offset" />
          </mxGeometry>
        </mxCell>
        <mxCell id="LeEIv6P1fug_gj2INwmn-15" value="审核是否通过" style="rhombus;whiteSpace=wrap;html=1;shadow=0;fontFamily=Helvetica;fontSize=12;align=center;strokeWidth=1;spacing=6;spacingTop=-4;" vertex="1" parent="WIyWlLk6GJQsqaUBKTNV-1">
          <mxGeometry x="170" y="770" width="100" height="70" as="geometry" />
        </mxCell>
        <mxCell id="LeEIv6P1fug_gj2INwmn-17" value="未通过" style="edgeStyle=orthogonalEdgeStyle;rounded=0;html=1;jettySize=auto;orthogonalLoop=1;fontSize=11;endArrow=classicThin;endFill=1;endSize=8;strokeWidth=1;shadow=0;labelBackgroundColor=none;entryX=1;entryY=0.5;entryDx=0;entryDy=0;exitX=1;exitY=0.5;exitDx=0;exitDy=0;" edge="1" parent="WIyWlLk6GJQsqaUBKTNV-1" source="LeEIv6P1fug_gj2INwmn-15" target="LeEIv6P1fug_gj2INwmn-13">
          <mxGeometry x="0.0286" relative="1" as="geometry">
            <mxPoint as="offset" />
            <mxPoint x="280" y="815" as="sourcePoint" />
            <mxPoint x="290" y="730" as="targetPoint" />
            <Array as="points">
              <mxPoint x="330" y="805" />
              <mxPoint x="330" y="710" />
            </Array>
          </mxGeometry>
        </mxCell>
        <mxCell id="LeEIv6P1fug_gj2INwmn-22" value="" style="edgeStyle=orthogonalEdgeStyle;rounded=0;orthogonalLoop=1;jettySize=auto;html=1;" edge="1" parent="WIyWlLk6GJQsqaUBKTNV-1" source="LeEIv6P1fug_gj2INwmn-18" target="LeEIv6P1fug_gj2INwmn-21">
          <mxGeometry relative="1" as="geometry" />
        </mxCell>
        <mxCell id="LeEIv6P1fug_gj2INwmn-18" value="机器人添加 status/can-merge" style="rounded=0;whiteSpace=wrap;html=1;" vertex="1" parent="WIyWlLk6GJQsqaUBKTNV-1">
          <mxGeometry x="160" y="870" width="120" height="30" as="geometry" />
        </mxCell>
        <mxCell id="LeEIv6P1fug_gj2INwmn-26" style="edgeStyle=orthogonalEdgeStyle;rounded=0;orthogonalLoop=1;jettySize=auto;html=1;entryX=0;entryY=0.5;entryDx=0;entryDy=0;" edge="1" parent="WIyWlLk6GJQsqaUBKTNV-1" source="LeEIv6P1fug_gj2INwmn-21" target="LeEIv6P1fug_gj2INwmn-24">
          <mxGeometry relative="1" as="geometry" />
        </mxCell>
        <mxCell id="LeEIv6P1fug_gj2INwmn-32" value="未通过" style="edgeLabel;html=1;align=center;verticalAlign=middle;resizable=0;points=[];" vertex="1" connectable="0" parent="LeEIv6P1fug_gj2INwmn-26">
          <mxGeometry x="-0.4286" relative="1" as="geometry">
            <mxPoint as="offset" />
          </mxGeometry>
        </mxCell>
        <mxCell id="LeEIv6P1fug_gj2INwmn-30" style="edgeStyle=orthogonalEdgeStyle;rounded=0;orthogonalLoop=1;jettySize=auto;html=1;entryX=0.5;entryY=0;entryDx=0;entryDy=0;" edge="1" parent="WIyWlLk6GJQsqaUBKTNV-1" source="LeEIv6P1fug_gj2INwmn-21" target="LeEIv6P1fug_gj2INwmn-33">
          <mxGeometry relative="1" as="geometry">
            <mxPoint x="220" y="1040" as="targetPoint" />
          </mxGeometry>
        </mxCell>
        <mxCell id="LeEIv6P1fug_gj2INwmn-31" value="通过" style="edgeLabel;html=1;align=center;verticalAlign=middle;resizable=0;points=[];" vertex="1" connectable="0" parent="LeEIv6P1fug_gj2INwmn-30">
          <mxGeometry x="0.2" y="-7" relative="1" as="geometry">
            <mxPoint x="10" y="-6" as="offset" />
          </mxGeometry>
        </mxCell>
        <mxCell id="LeEIv6P1fug_gj2INwmn-21" value="测试是否通过" style="rhombus;whiteSpace=wrap;html=1;shadow=0;fontFamily=Helvetica;fontSize=12;align=center;strokeWidth=1;spacing=6;spacingTop=-4;" vertex="1" parent="WIyWlLk6GJQsqaUBKTNV-1">
          <mxGeometry x="170" y="930" width="100" height="70" as="geometry" />
        </mxCell>
        <mxCell id="LeEIv6P1fug_gj2INwmn-28" style="edgeStyle=orthogonalEdgeStyle;rounded=0;orthogonalLoop=1;jettySize=auto;html=1;" edge="1" parent="WIyWlLk6GJQsqaUBKTNV-1" source="LeEIv6P1fug_gj2INwmn-24" target="LeEIv6P1fug_gj2INwmn-21">
          <mxGeometry relative="1" as="geometry">
            <mxPoint x="490" y="880" as="targetPoint" />
            <Array as="points">
              <mxPoint x="470" y="965" />
              <mxPoint x="470" y="910" />
              <mxPoint x="220" y="910" />
            </Array>
          </mxGeometry>
        </mxCell>
        <mxCell id="LeEIv6P1fug_gj2INwmn-24" value="作者或协作者重新触发未通过测试" style="whiteSpace=wrap;html=1;rounded=0;" vertex="1" parent="WIyWlLk6GJQsqaUBKTNV-1">
          <mxGeometry x="340" y="937.5" width="90" height="55" as="geometry" />
        </mxCell>
        <mxCell id="LeEIv6P1fug_gj2INwmn-29" style="edgeStyle=orthogonalEdgeStyle;rounded=0;orthogonalLoop=1;jettySize=auto;html=1;exitX=0.5;exitY=1;exitDx=0;exitDy=0;" edge="1" parent="WIyWlLk6GJQsqaUBKTNV-1" source="LeEIv6P1fug_gj2INwmn-21" target="LeEIv6P1fug_gj2INwmn-21">
          <mxGeometry relative="1" as="geometry" />
        </mxCell>
        <mxCell id="LeEIv6P1fug_gj2INwmn-34" style="edgeStyle=orthogonalEdgeStyle;rounded=0;orthogonalLoop=1;jettySize=auto;html=1;entryX=0.5;entryY=0;entryDx=0;entryDy=0;" edge="1" parent="WIyWlLk6GJQsqaUBKTNV-1" source="LeEIv6P1fug_gj2INwmn-33" target="LeEIv6P1fug_gj2INwmn-35">
          <mxGeometry relative="1" as="geometry">
            <mxPoint x="220" y="1100" as="targetPoint" />
          </mxGeometry>
        </mxCell>
        <mxCell id="LeEIv6P1fug_gj2INwmn-33" value="机器人尝试合并" style="rounded=0;whiteSpace=wrap;html=1;" vertex="1" parent="WIyWlLk6GJQsqaUBKTNV-1">
          <mxGeometry x="160" y="1040" width="120" height="30" as="geometry" />
        </mxCell>
        <mxCell id="LeEIv6P1fug_gj2INwmn-36" style="edgeStyle=orthogonalEdgeStyle;rounded=0;orthogonalLoop=1;jettySize=auto;html=1;exitX=0;exitY=0.5;exitDx=0;exitDy=0;entryX=0;entryY=0.5;entryDx=0;entryDy=0;" edge="1" parent="WIyWlLk6GJQsqaUBKTNV-1" source="LeEIv6P1fug_gj2INwmn-35" target="LeEIv6P1fug_gj2INwmn-13">
          <mxGeometry relative="1" as="geometry">
            <mxPoint x="40" y="710" as="targetPoint" />
            <Array as="points">
              <mxPoint x="110" y="1135" />
              <mxPoint x="110" y="710" />
            </Array>
          </mxGeometry>
        </mxCell>
        <mxCell id="LeEIv6P1fug_gj2INwmn-37" value="有新的提交" style="edgeLabel;html=1;align=center;verticalAlign=middle;resizable=0;points=[];" vertex="1" connectable="0" parent="LeEIv6P1fug_gj2INwmn-36">
          <mxGeometry x="0.1242" y="1" relative="1" as="geometry">
            <mxPoint as="offset" />
          </mxGeometry>
        </mxCell>
        <mxCell id="LeEIv6P1fug_gj2INwmn-38" style="edgeStyle=orthogonalEdgeStyle;rounded=0;orthogonalLoop=1;jettySize=auto;html=1;entryX=0.5;entryY=0;entryDx=0;entryDy=0;" edge="1" parent="WIyWlLk6GJQsqaUBKTNV-1" source="LeEIv6P1fug_gj2INwmn-35" target="LeEIv6P1fug_gj2INwmn-40">
          <mxGeometry relative="1" as="geometry">
            <mxPoint x="220" y="1220" as="targetPoint" />
            <Array as="points" />
          </mxGeometry>
        </mxCell>
        <mxCell id="LeEIv6P1fug_gj2INwmn-39" value="无新提交" style="edgeLabel;html=1;align=center;verticalAlign=middle;resizable=0;points=[];" vertex="1" connectable="0" parent="LeEIv6P1fug_gj2INwmn-38">
          <mxGeometry x="-0.04" y="-2" relative="1" as="geometry">
            <mxPoint as="offset" />
          </mxGeometry>
        </mxCell>
        <mxCell id="LeEIv6P1fug_gj2INwmn-35" value="是否有新的提交" style="rhombus;whiteSpace=wrap;html=1;shadow=0;fontFamily=Helvetica;fontSize=12;align=center;strokeWidth=1;spacing=6;spacingTop=-4;" vertex="1" parent="WIyWlLk6GJQsqaUBKTNV-1">
          <mxGeometry x="170" y="1100" width="100" height="70" as="geometry" />
        </mxCell>
        <mxCell id="LeEIv6P1fug_gj2INwmn-40" value="PR 合并" style="rounded=1;whiteSpace=wrap;html=1;fontSize=12;glass=0;strokeWidth=1;shadow=0;" vertex="1" parent="WIyWlLk6GJQsqaUBKTNV-1">
          <mxGeometry x="160" y="1230" width="120" height="40" as="geometry" />
        </mxCell>
      </root>
    </mxGraphModel>
  </diagram>
</mxfile>
